HIERARCHY
ROOT Hips
{
 OFFSET 0.000000 0.000000 0.000000
 CHANNELS 6 Xposition Yposition Zposition Yrotation Xrotation Zrotation
 JOINT Chest
 {
  OFFSET 0.000000 9.585900 0.002600
  CHANNELS 3 Yrotation Xrotation Zrotation
  JOINT Chest2
  {
   OFFSET 0.000000 9.601200 -0.005300
   CHANNELS 3 Yrotation Xrotation Zrotation
   JOINT Chest3
   {
    OFFSET 0.000000 9.561800 0.000000
    CHANNELS 3 Yrotation Xrotation Zrotation
    JOINT Chest4
    {
     OFFSET 0.000000 9.552100 0.000000
     CHANNELS 3 Yrotation Xrotation Zrotation
     JOINT Neck
     {
      OFFSET 0.000000 14.453000 0.000000
      CHANNELS 3 Yrotation Xrotation Zrotation
      JOINT Head
      {
       OFFSET 0.000000 8.936500 -0.011300
       CHANNELS 3 Yrotation Xrotation Zrotation
       End Site
       {
        OFFSET 0.000000 17.073600 -0.006000
       }
      }
     }
     JOINT RightCollar
     {
      OFFSET -2.921100 9.558500 0.000000
      CHANNELS 3 Yrotation Xrotation Zrotation
      JOINT RightShoulder
      {
       OFFSET -13.519700 0.000000 0.000000
       CHANNELS 3 Yrotation Xrotation Zrotation
       JOINT RightElbow
       {
        OFFSET 0.000000 -29.696600 0.000000
        CHANNELS 3 Yrotation Xrotation Zrotation
        JOINT RightWrist
        {
         OFFSET 0.000000 -24.004700 0.000000
         CHANNELS 3 Yrotation Xrotation Zrotation
         End Site
         {
          OFFSET 0.000000 -17.728500 0.000000
         }
        }
       }
      }
     }
     JOINT LeftCollar
     {
      OFFSET 2.921100 9.558500 0.000000
      CHANNELS 3 Yrotation Xrotation Zrotation
      JOINT LeftShoulder
      {
       OFFSET 13.519700 0.000000 0.000000
       CHANNELS 3 Yrotation Xrotation Zrotation
       JOINT LeftElbow
       {
        OFFSET 0.000000 -29.696600 0.000000
        CHANNELS 3 Yrotation Xrotation Zrotation
        JOINT LeftWrist
        {
         OFFSET 0.000000 -24.004700 0.000000
         CHANNELS 3 Yrotation Xrotation Zrotation
         End Site
         {
          OFFSET 0.000000 -17.728500 0.000000
         }
        }
       }
      }
     }
    }
   }
  }
 }
 JOINT RightHip
 {
  OFFSET -7.771700 -0.012900 -0.001300
  CHANNELS 3 Yrotation Xrotation Zrotation
  JOINT RightKnee
  {
   OFFSET 0.000000 -40.869800 0.001200
   CHANNELS 3 Yrotation Xrotation Zrotation
   JOINT RightAnkle
   {
    OFFSET 0.000000 -39.717900 0.002100
    CHANNELS 3 Yrotation Xrotation Zrotation
    JOINT RightToe
    {
     OFFSET 0.000000 -4.965400 11.033500
     CHANNELS 3 Yrotation Xrotation Zrotation
     End Site
     {
      OFFSET 0.000000 -1.423100 5.872300
     }
    }
   }
  }
 }
 JOINT LeftHip
 {
  OFFSET 7.771700 -0.012900 -0.001300
  CHANNELS 3 Yrotation Xrotation Zrotation
  JOINT LeftKnee
  {
   OFFSET 0.000000 -40.869800 0.001200
   CHANNELS 3 Yrotation Xrotation Zrotation
   JOINT LeftAnkle
   {
    OFFSET 0.000000 -39.717900 0.002100
    CHANNELS 3 Yrotation Xrotation Zrotation
    JOINT LeftToe
    {
     OFFSET 0.000000 -4.965400 11.033500
     CHANNELS 3 Yrotation Xrotation Zrotation
     End Site
     {
      OFFSET 0.000000 -1.423100 5.872300
     }
    }
   }
  }
 }
}
MOTION
Frames: 15
Frame Time: 0.008333
-147.975461 49.114422 18.746319 175.264753 -33.012104 -3.905549 -0.350304 19.866001 2.603878 -0.077616 2.457508 0.272478 -0.121096 4.034819 0.446271 -0.306427 17.100650 1.873993 4.481516 16.375725 -2.665219 9.254855 -5.030020 -6.503677 -1.201607 -2.461682 -3.575367 5.073983 -8.544449 -12.368722 -39.897106 -46.431662 92.525080 3.681560 6.019943 -14.258740 0.786640 -2.437145 1.858983 -6.456971 -3.071223 12.996676 78.167688 -69.417419 -116.683805 3.018204 10.624644 6.114907 -5.970117 -51.694335 -5.892593 -145.652641 82.713601 -132.588203 -30.496933 -2.747661 -4.948672 -0.136065 -12.791426 0.384883 -13.867330 -53.595955 19.612404 -75.428271 65.397954 -80.125536 30.611581 6.509674 15.644238 0.063836 -0.463127 0.024250
-147.976786 49.115295 18.745047 175.270636 -33.033626 -3.904905 -0.355737 19.886103 2.599015 -0.078147 2.456397 0.271912 -0.130001 4.029187 0.442630 -0.310291 17.107362 1.869361 4.492060 16.379340 -2.671673 9.270942 -5.021542 -6.522747 -1.188553 -2.463951 -3.572257 5.064542 -8.545863 -12.365733 -39.897447 -46.431044 92.531373 3.677041 6.017095 -14.271349 0.788140 -2.439554 1.859081 -6.449923 -3.073294 12.997868 78.296949 -69.418183 -116.812177 3.035916 10.669481 6.123729 -5.970915 -51.673523 -5.897838 -145.655780 82.713593 -132.596245 -30.506730 -2.750128 -4.943128 -0.087958 -12.789487 0.372956 -13.854320 -53.581320 19.585186 -75.448347 65.408608 -80.135344 30.615789 6.513104 15.640389 0.063339 -0.467728 0.022647
-147.977502 49.114636 18.745354 175.268006 -33.041142 -3.906873 -0.357375 19.886630 2.598560 -0.085835 2.451054 0.270281 -0.121109 4.039312 0.444788 -0.309939 17.109137 1.868407 4.490578 16.379551 -2.681100 9.285898 -5.014957 -6.536021 -1.189938 -2.473080 -3.577290 5.059906 -8.545759 -12.362480 -39.936413 -46.447320 92.557419 3.650154 6.018932 -14.282422 0.759998 -2.452844 1.850117 -6.428265 -3.062836 13.004264 78.305151 -69.420037 -116.812857 3.010440 10.664274 6.111269 -5.973379 -51.666732 -5.894433 -145.676169 82.712077 -132.623602 -30.467047 -2.749674 -4.952570 -0.102062 -12.785494 0.380598 -13.851283 -53.577234 19.579412 -75.464200 65.414536 -80.142316 30.618855 6.510878 15.635811 0.061872 -0.466726 0.022747
-147.978582 49.113278 18.746016 175.265852 -33.043263 -3.909212 -0.366991 19.875804 2.595073 -0.080598 2.458151 0.270850 -0.118800 4.043331 0.446140 -0.320519 17.109438 1.864883 4.502336 16.381262 -2.686131 9.291538 -5.012399 -6.539176 -1.193889 -2.479762 -3.583234 5.068031 -8.546612 -12.359007 -39.940924 -46.448006 92.563066 3.656569 5.978323 -14.299236 0.765053 -2.453768 1.848001 -6.424444 -3.061303 13.004314 78.360131 -69.418985 -116.877239 2.989554 10.659825 6.128158 -5.976584 -51.665288 -5.890722 -145.694416 82.711724 -132.645538 -30.442292 -2.753962 -4.963347 -0.129496 -12.778087 0.393328 -13.852967 -53.575921 19.581746 -75.470232 65.416757 -80.141895 30.614460 6.508512 15.628688 0.064889 -0.461856 0.024112
-147.981901 49.111961 18.745779 175.273626 -33.048040 -3.904372 -0.382332 19.875282 2.580054 -0.079686 2.460023 0.271465 -0.129083 4.035456 0.441663 -0.316251 17.113954 1.866515 4.512451 16.387062 -2.689145 9.307327 -5.005014 -6.560112 -1.195798 -2.471390 -3.584821 5.077299 -8.550963 -12.357348 -39.952060 -46.455557 92.568232 3.655643 5.965246 -14.295170 0.767798 -2.450006 1.848073 -6.420387 -3.058289 13.002707 78.454125 -69.422777 -116.982628 2.997993 10.681048 6.153830 -5.976361 -51.664987 -5.902253 -145.659408 82.706507 -132.615770 -30.465562 -2.757736 -4.949567 -0.096225 -12.774579 0.380385 -13.843463 -53.577068 19.554916 -75.476760 65.426177 -80.138939 30.612244 6.511575 15.622767 0.065542 -0.462353 0.024638
-147.982181 49.109842 18.747420 175.272718 -33.042559 -3.914145 -0.384383 19.864357 2.584847 -0.075407 2.464686 0.274387 -0.134721 4.031945 0.438129 -0.323039 17.115497 1.862083 4.521120 16.387482 -2.695119 9.335045 -5.010800 -6.596927 -1.189329 -2.466887 -3.581876 5.067655 -8.563640 -12.361077 -39.963359 -46.459373 92.586967 3.645249 5.973207 -14.290729 0.769369 -2.451657 1.848082 -6.440182 -3.063405 12.991452 78.438236 -69.436514 -116.935165 2.988297 10.670516 6.162027 -5.993160 -51.673311 -5.887299 -145.691923 82.702278 -132.654902 -30.422167 -2.751745 -4.962591 -0.158033 -12.776166 0.399494 -13.858986 -53.587700 19.570080 -75.497154 65.431045 -80.150242 30.611926 6.517578 15.615150 0.068012 -0.466198 0.025842
-147.984757 49.108829 18.747087 175.275293 -33.049924 -3.910397 -0.393624 19.866151 2.572470 -0.076504 2.464109 0.275215 -0.131525 4.036308 0.439679 -0.331109 17.113507 1.856722 4.524591 16.379234 -2.709855 9.351362 -5.012115 -6.598927 -1.186390 -2.461157 -3.579568 5.019665 -8.584974 -12.366498 -39.947556 -46.456477 92.616151 3.636501 5.985188 -14.284954 0.771989 -2.454275 1.851659 -6.439111 -3.059308 12.988199 78.455765 -69.442242 -116.952596 2.991251 10.652208 6.201811 -5.996541 -51.673300 -5.888585 -145.717801 82.710091 -132.688818 -30.480747 -2.740258 -4.943407 -0.122318 -12.784197 0.383209 -13.852360 -53.584341 19.558027 -75.505124 65.431777 -80.154537 30.606290 6.519375 15.610371 0.074684 -0.466525 0.027769
-147.986351 49.108138 18.747006 175.271825 -33.058465 -3.907721 -0.393783 19.869690 2.566020 -0.084044 2.457877 0.268273 -0.123399 4.046141 0.448352 -0.335461 17.113729 1.854194 4.531493 16.377104 -2.712007 9.359350 -5.021345 -6.611998 -1.194043 -2.461204 -3.577675 5.020549 -8.589566 -12.366087 -39.968477 -46.464119 92.634239 3.636110 5.984895 -14.281348 0.769978 -2.468718 1.847218 -6.435952 -3.046497 12.989706 78.460293 -69.440465 -116.968829 2.994192 10.653738 6.227926 -5.993790 -51.670735 -5.889475 -145.804599 82.717223 -132.782086 -30.496140 -2.730522 -4.941761 -0.155355 -12.789737 0.391818 -13.852969 -53.578283 19.553057 -75.509724 65.436799 -80.159016 30.614769 6.522146 15.611795 0.066995 -0.472289 0.024659
-147.986640 49.108517 18.746202 175.266859 -33.075609 -3.909323 -0.387812 19.884653 2.568568 -0.086229 2.456009 0.266651 -0.123687 4.043716 0.444603 -0.335174 17.115599 1.852552 4.536928 16.377054 -2.709562 9.365877 -5.028353 -6.623141 -1.216239 -2.474028 -3.565599 5.035424 -8.578740 -12.368580 -40.006893 -46.477207 92.645375 3.636380 5.997313 -14.250403 0.773107 -2.468862 1.851823 -6.449964 -3.050861 12.987364 78.452148 -69.436602 -116.960655 2.996020 10.657666 6.250348 -5.984210 -51.656966 -5.876565 -145.788655 82.719582 -132.768666 -30.547821 -2.728752 -4.930038 -0.119063 -12.786953 0.386524 -13.856273 -53.558663 19.556452 -75.515322 65.441111 -80.165126 30.613865 6.512811 15.606678 0.064842 -0.468482 0.024975
-147.984715 49.108099 18.747864 175.253421 -33.080135 -3.918042 -0.379581 19.879773 2.576309 -0.082187 2.461136 0.269709 -0.135282 4.032887 0.436597 -0.336161 17.120583 1.851443 4.545905 16.373032 -2.717832 9.380481 -5.024760 -6.625853 -1.202979 -2.465672 -3.559205 5.016318 -8.584503 -12.367980 -39.999020 -46.478385 92.650051 3.647661 5.997810 -14.244306 0.790771 -2.463709 1.855009 -6.471806 -3.060367 12.987690 78.405582 -69.429381 -116.906853 3.002533 10.646610 6.295452 -5.988094 -51.652744 -5.851753 -145.830380 82.726675 -132.815898 -30.513286 -2.718894 -4.944171 -0.138939 -12.786965 0.398426 -13.869580 -53.549673 19.583105 -75.522338 65.437433 -80.165030 30.614160 6.509707 15.594081 0.066500 -0.464903 0.027634
-147.984197 49.107987 18.749479 175.245698 -33.085952 -3.918782 -0.385493 19.865629 2.566473 -0.081740 2.461878 0.269857 -0.128202 4.042628 0.441531 -0.331410 17.126613 1.853796 4.544803 16.368006 -2.723377 9.385469 -5.023122 -6.633565 -1.214417 -2.471166 -3.558932 5.005168 -8.581533 -12.360005 -39.977756 -46.481455 92.648990 3.648667 5.999851 -14.248766 0.789538 -2.473571 1.854702 -6.475414 -3.051338 12.989792 78.395054 -69.425161 -116.892129 3.005380 10.643218 6.303643 -5.981796 -51.647868 -5.845002 -145.827359 82.728880 -132.813871 -30.499590 -2.716222 -4.951389 -0.104571 -12.784135 0.395223 -13.872460 -53.541128 19.591713 -75.519313 65.437906 -80.161612 30.615039 6.505128 15.588158 0.061449 -0.461710 0.030018
-147.985583 49.109069 18.749418 175.246409 -33.103763 -3.909619 -0.394892 19.875347 2.550337 -0.083477 2.458719 0.269351 -0.125824 4.045571 0.441836 -0.326852 17.130440 1.855166 4.543095 16.365476 -2.726762 9.388836 -5.020297 -6.640784 -1.220911 -2.474904 -3.557608 4.996077 -8.582526 -12.348568 -39.970385 -46.486709 92.641256 3.645111 6.012354 -14.248633 0.787251 -2.482052 1.855146 -6.473882 -3.043429 12.992752 78.386300 -69.415672 -116.886120 3.004204 10.644769 6.306621 -5.953611 -51.633458 -5.859878 -145.742427 82.727879 -132.720620 -30.581075 -2.719816 -4.921976 -0.094322 -12.779985 0.381104 -13.881862 -53.513849 19.588531 -75.489251 65.440622 -80.146785 30.610958 6.494760 15.585128 0.060724 -0.452175 0.028470
-147.983252 49.109534 18.751476 175.228910 -33.112439 -3.912008 -0.377918 19.880100 2.560825 -0.089277 2.449215 0.267705 -0.119756 4.055049 0.443168 -0.332331 17.120614 1.851619 4.549724 16.375969 -2.724947 9.390136 -5.019291 -6.644677 -1.219816 -2.471314 -3.557273 4.989546 -8.583732 -12.334743 -39.964309 -46.488281 92.628904 3.644285 6.026413 -14.246223 0.788403 -2.484862 1.852411 -6.464304 -3.032548 13.000640 78.375338 -69.408584 -116.881479 3.003487 10.645575 6.297169 -5.944631 -51.624922 -5.841158 -145.703759 82.737685 -132.680714 -30.586301 -2.706685 -4.922110 -0.077364 -12.782610 0.374727 -13.895293 -53.499906 19.614608 -75.491989 65.433968 -80.152571 30.620276 6.489780 15.582040 0.057693 -0.449811 0.024135
-147.979873 49.110532 18.753050 175.206477 -33.126667 -3.916591 -0.361593 19.881628 2.573636 -0.086658 2.451500 0.267571 -0.121096 4.051281 0.443522 -0.330724 17.109582 1.851663 4.552598 16.389780 -2.726491 9.392587 -5.009852 -6.645521 -1.238822 -2.463510 -3.562230 5.011806 -8.572777 -12.319719 -39.960866 -46.489142 92.615422 3.645103 6.031417 -14.249421 0.789970 -2.476633 1.849911 -6.458001 -3.018696 13.002878 78.368366 -69.408738 -116.880857 3.005100 10.643383 6.286906 -5.933248 -51.607403 -5.817968 -145.703619 82.746795 -132.674083 -30.578749 -2.706149 -4.928499 -0.078499 -12.777733 0.375276 -13.907360 -53.481737 19.645298 -75.491189 65.433599 -80.157488 30.636879 6.492976 15.588441 0.038007 -0.460963 0.016866
-147.977075 49.110505 18.755928 175.186256 -33.131016 -3.918974 -0.356176 19.860250 2.575257 -0.073762 2.473576 0.273800 -0.130620 4.029724 0.437724 -0.318823 17.122621 1.854256 4.553789 16.391787 -2.726095 9.400112 -5.004073 -6.658047 -1.248775 -2.465940 -3.560855 5.024295 -8.558199 -12.310442 -39.964968 -46.492326 92.608358 3.640018 6.035435 -14.259825 0.791946 -2.479133 1.854951 -6.454082 -3.007606 13.000847 78.361987 -69.409369 -116.883258 3.007711 10.642482 6.285122 -5.923375 -51.601619 -5.801622 -145.661214 82.756382 -132.624116 -30.572457 -2.696780 -4.938782 -0.074144 -12.778924 0.375059 -13.917238 -53.475242 19.672361 -75.490920 65.435201 -80.161965 30.649257 6.493279 15.593819 0.024786 -0.466104 0.011508
